<?xml version="1.0" encoding="UTF-8"?>
<svg id="Layer_1" data-name="Layer 1" xmlns="http://www.w3.org/2000/svg" viewBox="0 0 490 490">
  <defs>
    <style>
      .cls-1 {
        fill: #e76bb1;
      }

      .cls-2 {
        fill: #111334;
      }
    </style>
  </defs>
  <path class="cls-2" d="M490,245c0,16.6-1.65,32.81-4.8,48.48-1.59,7.96-3.58,15.78-5.93,23.44-30.73,100.22-123.99,173.08-234.27,173.08S40.48,416.37,10.25,315.35c-2.3-7.68-4.23-15.52-5.77-23.49-2.94-15.17-4.48-30.83-4.48-46.86C0,109.69,109.69,0,245,0s245,109.69,245,245Z"/>
  <g>
    <path class="cls-1" d="M485.2,293.48c-1.59,7.96-3.58,15.78-5.93,23.44-79.62-11.09-159.44-16.79-237.86-16.96-1.22,0-2.44-.01-3.65-.01-75.88,0-152.18,5.17-227.51,15.4-2.3-7.68-4.23-15.52-5.77-23.49,78.44-10.76,157.93-16.13,236.98-15.94,80.37.17,162.18,6.07,243.74,17.56Z"/>
    <path class="cls-1" d="M138.68,261s0,.01,0,.02c41.55-4,83.33-5.97,124.93-5.87,29.31.06,58.88,1.14,88.56,3.25,6.66-5.52,7.74-12.19,5.1-17.84-2.64-5.66-9.01-10.3-17.27-11.76-9.35-1.65-51.47,1.97-55.83-1.02l-59.76-85.34c-3.71-3.07-16.62-.81-21.8-1.31-1.53.8.81,7.42,1.14,9.15,5.12,26.69,13.68,52.79,18.19,79.62-9.41-.61-50.38,4.96-56.4,1.81-11.29-5.92-11.84-30.23-32.9-23.85l6.04,53.14Z"/>
  </g>
</svg>